<svg width="128" height="128" viewBox="0 0 128 128" fill="none" xmlns="http://www.w3.org/2000/svg">
<g clip-path="url(#clip0_12601_105819)">
<path d="M94.5782 20.4786H33.4331V12.7986H12.8057V115.199H33.4331V101.705H94.5782V115.199H115.206V12.7986H94.5782V20.4786ZM107.452 94.0253C107.452 95.4391 106.306 96.5853 104.892 96.5853C103.478 96.5853 102.332 95.4391 102.332 94.0253C102.332 92.6114 103.478 91.4653 104.892 91.4653C106.306 91.4653 107.452 92.6114 107.452 94.0253ZM102.332 28.6435C102.332 27.2296 103.478 26.0835 104.892 26.0835C106.306 26.0835 107.452 27.2296 107.452 28.6435C107.452 30.0573 106.306 31.2035 104.892 31.2035C103.478 31.2035 102.332 30.0573 102.332 28.6435ZM23.1194 31.2035C21.7056 31.2035 20.5594 30.0573 20.5594 28.6435C20.5594 27.2296 21.7056 26.0835 23.1194 26.0835C24.5332 26.0835 25.6794 27.2296 25.6794 28.6435C25.6794 30.0573 24.5332 31.2035 23.1194 31.2035ZM25.6794 94.0253C25.6794 95.4391 24.5332 96.5853 23.1194 96.5853C21.7056 96.5853 20.5594 95.4391 20.5594 94.0253C20.5594 92.6114 21.7056 91.4653 23.1194 91.4653C24.5332 91.4653 25.6794 92.6114 25.6794 94.0253ZM33.4331 86.3453V35.8386H42.2448V86.3453H33.4331ZM49.9248 86.3453V35.8386H60.1657V86.3453H49.9248ZM67.8457 86.3453V35.8386H78.0865V86.3453H67.8457ZM85.7665 86.3453V35.8386H94.5782V86.3453H85.7665Z" fill="#46A758"/>
</g>
<defs>
<clipPath id="clip0_12601_105819">
<rect width="128" height="128" fill="white"/>
</clipPath>
</defs>
</svg>
